<?xml version="1.0" standalone="no"?>
<!DOCTYPE svg PUBLIC "-//W3C//DTD SVG 20010904//EN"
 "http://www.w3.org/TR/2001/REC-SVG-20010904/DTD/svg10.dtd">
<svg version="1.0" xmlns="http://www.w3.org/2000/svg"
 width="225.000000pt" height="225.000000pt" viewBox="0 0 225.000000 225.000000"
 preserveAspectRatio="xMidYMid meet">
<metadata>
Created by potrace 1.11, written by Peter Selinger 2001-2013
</metadata>
<g transform="translate(0.000000,225.000000) scale(0.100000,-0.100000)"
fill="#000000" stroke="none">
<path d="M985 2110 c-508 -79 -876 -550 -824 -1055 25 -239 114 -431 278 -596
182 -182 394 -276 651 -286 483 -20 888 294 997 772 24 107 22 308 -5 418 -46
187 -130 338 -261 468 -129 128 -286 218 -452 259 -96 24 -291 34 -384 20z
m313 -136 c313 -64 554 -287 648 -601 23 -76 27 -107 27 -223 1 -157 -14 -229
-74 -358 -119 -258 -348 -435 -626 -483 -38 -7 -117 -10 -187 -7 -101 4 -137
10 -216 37 -127 43 -237 110 -330 201 -171 170 -252 364 -253 605 0 196 54
355 175 516 188 249 527 377 836 313z"/>
<path d="M1061 1843 c-50 -18 -131 -93 -130 -120 0 -10 23 -37 51 -59 l51 -41
37 38 c25 26 46 39 64 39 58 0 42 -60 -39 -145 -42 -44 -56 -66 -64 -106 -14
-63 -14 -99 -1 -99 7 0 7 -6 0 -19 -28 -53 5 -131 63 -150 39 -13 82 -2 103
27 17 21 18 86 3 115 -9 16 -9 22 0 25 6 2 11 24 11 48 0 48 9 60 81 115 79
60 79 231 1 302 -50 45 -151 58 -231 30z m177 -30 c47 -22 82 -87 82 -152 0
-71 -21 -114 -70 -147 -47 -31 -70 -69 -70 -114 0 -26 -4 -30 -26 -30 -25 0
-26 2 -21 43 l6 42 -15 -42 c-21 -58 -38 -56 -31 5 l6 47 -16 -42 c-8 -24 -19
-43 -25 -43 -14 0 0 79 20 110 8 14 39 48 68 75 59 56 75 95 53 134 -12 21
-24 27 -58 29 -39 3 -46 0 -81 -37 -32 -33 -40 -38 -50 -26 -9 10 -7 20 5 39
20 29 11 34 -17 9 -10 -9 -18 -12 -18 -6 0 5 9 18 20 28 23 21 28 44 5 25 -9
-7 -18 -10 -21 -8 -3 3 12 20 33 37 61 51 145 60 221 24z m-71 -495 c13 -12
23 -31 23 -43 0 -35 -37 -75 -70 -75 -24 0 -30 5 -36 33 -4 17 -9 26 -11 19
-3 -6 -9 -10 -14 -6 -13 8 -11 68 3 82 20 20 79 14 105 -10z"/>
<path d="M1212 1771 c25 -16 48 -37 52 -46 3 -10 9 -15 12 -12 10 10 -17 48
-49 67 -51 32 -66 23 -15 -9z"/>
<path d="M1185 1738 c11 -6 25 -19 32 -27 11 -14 12 -14 13 1 0 10 -9 22 -19
28 -27 14 -51 12 -26 -2z"/>
<path d="M538 1062 c-53 -35 -84 -88 -99 -167 -13 -69 2 -127 42 -168 29 -29
33 -29 101 -25 l70 5 27 -43 c14 -24 29 -44 33 -44 5 0 26 16 48 36 l39 36
-35 53 c-30 44 -34 57 -25 73 6 12 11 46 11 77 0 102 -64 185 -143 185 -23 0
-54 -8 -69 -18z m120 -12 c41 -25 71 -89 72 -152 0 -51 -8 -80 -20 -73 -4 3
-3 23 2 44 7 27 7 45 -1 58 -10 17 -11 17 -9 -2 3 -41 -2 -66 -12 -60 -5 3
-10 16 -11 28 0 12 -3 16 -6 9 -3 -9 -12 -3 -24 17 -24 40 -65 42 -103 4 -48
-48 -48 -118 2 -129 52 -11 58 -17 27 -24 -25 -6 -27 -8 -12 -14 9 -5 25 -5
35 -2 14 5 13 3 -3 -10 -20 -16 -20 -16 3 -11 12 3 22 2 22 -3 0 -13 -58 -20
-84 -10 -89 33 -97 201 -14 296 50 57 84 66 136 34z m-30 -132 c21 -21 13 -34
-27 -53 -35 -15 -38 -20 -28 -36 14 -23 2 -37 -21 -23 -36 23 -23 96 21 114
31 12 41 12 55 -2z m82 -133 c60 -85 78 -124 41 -91 -19 17 -19 17 -14 -6 5
-23 5 -23 -10 -3 -19 23 -22 13 -7 -16 6 -10 7 -19 2 -19 -8 0 -40 45 -117
163 -17 26 -17 27 0 20 13 -4 16 -3 11 5 -9 15 6 16 21 1 9 -9 10 -7 6 10 -9
37 4 24 67 -64z"/>
<path d="M540 1015 c-15 -18 -15 -18 35 0 40 14 40 14 9 15 -17 0 -37 -7 -44
-15z"/>
<path d="M550 979 c0 -5 5 -7 10 -4 6 3 10 8 10 11 0 2 -4 4 -10 4 -5 0 -10
-5 -10 -11z"/>
<path d="M1105 1071 l-40 -6 -6 -110 c-5 -119 -21 -168 -55 -173 -41 -6 -49
21 -46 156 l3 125 -53 -6 c-29 -4 -61 -7 -72 -7 -17 0 -18 -9 -14 -152 3 -134
7 -158 26 -195 29 -55 70 -77 147 -78 146 0 203 112 205 403 0 58 1 58 -95 43z
m19 -48 c5 15 12 27 17 27 5 0 10 -12 10 -27 2 -27 2 -27 6 -3 3 14 9 30 15
35 16 15 2 -197 -17 -270 -24 -92 -77 -135 -165 -135 -89 0 -128 50 -141 180
-8 90 0 200 13 160 7 -22 7 -21 4 8 -1 17 1 32 4 32 4 0 11 -15 16 -32 l8 -33
3 38 c3 27 9 37 22 37 16 0 18 -9 13 -99 -7 -144 20 -203 85 -186 38 9 63 78
70 188 6 108 14 137 23 87 l6 -35 8 28z"/>
<path d="M983 723 c9 -2 25 -2 35 0 9 3 1 5 -18 5 -19 0 -27 -2 -17 -5z"/>
<path d="M978 698 c6 -6 18 -8 28 -6 14 3 12 5 -9 10 -19 3 -25 2 -19 -4z"/>
<path d="M1256 924 c-4 -88 -9 -189 -12 -226 l-6 -67 39 5 c21 3 53 7 71 10
l32 5 0 209 0 210 -22 0 c-13 0 -39 3 -59 6 l-37 6 -6 -158z m48 106 l8 25 8
-25 c5 -16 8 -19 9 -8 1 9 6 20 11 23 7 4 10 -57 10 -175 0 -118 -3 -179 -10
-175 -5 3 -10 0 -10 -7 -1 -7 -7 1 -15 17 l-13 30 -1 -31 c-1 -20 -7 -34 -18
-38 -15 -6 -16 4 -10 115 4 67 7 156 8 198 1 48 4 67 8 51 l7 -25 8 25z"/>
<path d="M1719 1054 c-12 -15 -31 -16 -147 -10 -102 4 -134 3 -137 -7 -2 -6
-6 -38 -8 -69 l-6 -58 97 0 96 0 -64 -65 c-53 -53 -70 -65 -97 -65 -17 0 -35
-5 -38 -11 -4 -5 -4 -37 0 -70 7 -56 8 -59 35 -59 15 0 38 -9 51 -19 24 -19
24 -19 49 3 21 20 44 25 145 36 66 6 123 17 127 23 4 7 8 34 8 60 l0 49 -69
-4 -70 -3 22 25 c58 67 92 100 103 100 13 0 24 45 24 96 0 33 -1 34 -39 34
-25 0 -41 5 -45 15 -7 20 -20 19 -37 -1z m-62 -34 c117 0 154 -3 151 -12 -3
-7 -15 -15 -29 -19 -24 -7 -24 -7 4 -8 33 -1 36 -17 5 -27 l-23 -8 25 -7 c14
-4 -57 -7 -157 -8 -116 -1 -183 3 -183 9 0 6 15 10 33 11 25 0 28 2 12 8 -19
8 -19 8 0 19 18 10 17 11 -13 12 -30 0 -32 2 -22 21 7 12 17 18 27 15 8 -3 84
-6 170 -6z m63 -175 c-67 -68 -97 -83 -84 -42 7 22 6 22 -15 3 -22 -20 -30 -9
-8 14 6 7 -2 4 -20 -8 -17 -12 -42 -22 -55 -22 -20 1 -14 9 42 60 l65 59 70 1
69 0 -64 -65z m80 -90 c0 -8 -7 -15 -15 -15 -8 0 -15 -2 -15 -4 0 -2 -3 -11
-6 -19 -4 -11 2 -17 18 -20 19 -4 18 -5 -7 -6 -16 -1 -98 -8 -182 -14 -83 -7
-149 -9 -147 -5 3 5 16 8 30 8 31 0 22 20 -9 21 -20 1 -20 2 3 9 l25 8 -27 1
c-18 1 -28 7 -28 16 0 24 52 31 233 34 107 1 127 -1 127 -14z m-260 -119 c0
-11 -19 -15 -25 -6 -3 5 1 10 9 10 9 0 16 -2 16 -4z"/>
<path d="M1535 730 c-3 -5 -1 -10 4 -10 6 0 11 5 11 10 0 6 -2 10 -4 10 -3 0
-8 -4 -11 -10z"/>
</g>
</svg>
